<?xml version="1.0" encoding="utf-8"?>
<!-- Generator: Adobe Illustrator 27.3.1, SVG Export Plug-In . SVG Version: 6.00 Build 0)  -->
<svg version="1.1" id="Layer_1" xmlns="http://www.w3.org/2000/svg" xmlns:xlink="http://www.w3.org/1999/xlink" x="0px" y="0px"
	 viewBox="0 0 160.7 160.7" style="enable-background:new 0 0 160.7 160.7;" xml:space="preserve">
<style type="text/css">
	.st0{fill:#516363;}
</style>
<path class="st0" d="M80.3,160.7C36,160.7,0,124.6,0,80.3C0,36,36,0,80.3,0s80.3,36,80.3,80.3C160.7,124.6,124.6,160.7,80.3,160.7z
	 M54.8,111.1c0.7,3.2,1.5,6.2,2.4,9.2c0.6,2,1.3,4,2,5.9c0.7,1.9,1.5,3.7,2.3,5.4c0.8,1.7,1.6,3.3,2.5,4.8c0.8,1.5,1.7,2.8,2.6,4.1
	c0.9,1.2,1.7,2.3,2.6,3.3c0.9,0.9,1.7,1.8,2.6,2.5c0.8,0.7,1.6,1.3,2.4,1.8c0.7,0.5,1.5,0.8,2.2,1.1c0.7,0.3,1.4,0.5,2,0.6
	c0.6,0.1,1.2,0.2,1.9,0.2c0.6,0,1.2-0.1,1.9-0.2c0.7-0.1,1.3-0.3,2-0.6c0.7-0.3,1.5-0.7,2.2-1.1c0.8-0.5,1.6-1.1,2.4-1.8
	c0.9-0.7,1.7-1.6,2.6-2.5c0.9-1,1.8-2.1,2.6-3.3c0.9-1.2,1.8-2.6,2.6-4.1c0.9-1.5,1.7-3.1,2.5-4.8c0.8-1.7,1.6-3.5,2.3-5.4
	c0.7-1.9,1.4-3.9,2-5.9c0.9-2.9,1.7-6,2.4-9.2H54.8z M18,111.1c8.2,16.7,22.6,29.2,40.1,35.1c-2.7-3.8-5.2-8.3-7.4-13.5
	c-2.7-6.4-4.9-13.7-6.4-21.6H18z M116.4,111.1c-1.6,7.9-3.7,15.1-6.4,21.6c-2.2,5.2-4.6,9.7-7.4,13.5c17.5-5.9,31.9-18.4,40.1-35.1
	H116.4z M146.8,100.8c4.1-13.3,4.1-27.6,0-40.9h-28.7c1.7,13.5,1.7,27.5,0,40.9H146.8z M107.7,100.8c0.3-2.3,0.6-4.7,0.8-7.1
	c0.4-4.4,0.6-8.9,0.6-13.3s-0.2-9-0.6-13.3c-0.2-2.4-0.5-4.8-0.8-7.1H53c-0.3,2.3-0.6,4.7-0.8,7.1c-0.4,4.4-0.6,8.9-0.6,13.3
	c0,4.5,0.2,9,0.6,13.3c0.2,2.4,0.5,4.8,0.8,7.1H107.7z M42.6,100.8c-1.7-13.5-1.7-27.5,0-40.9H13.9c-4.1,13.3-4.1,27.6,0,40.9H42.6z
	 M142.7,49.6c-8.2-16.7-22.6-29.2-40.1-35.1c2.7,3.8,5.2,8.3,7.4,13.5c2.7,6.4,4.9,13.7,6.4,21.6H142.7z M105.9,49.6
	c-0.7-3.2-1.5-6.2-2.4-9.2c-0.6-2-1.3-4-2-5.9c-0.7-1.9-1.5-3.7-2.3-5.4c-0.8-1.7-1.6-3.3-2.5-4.8c-0.8-1.5-1.7-2.8-2.6-4.1
	c-0.9-1.2-1.7-2.3-2.6-3.3c-0.9-0.9-1.7-1.8-2.6-2.5c-0.8-0.7-1.6-1.3-2.4-1.8c-0.7-0.5-1.5-0.8-2.2-1.1c-0.7-0.3-1.4-0.5-2-0.6
	c-0.6-0.1-1.2-0.2-1.9-0.2s-1.2,0.1-1.9,0.2c-0.7,0.1-1.3,0.3-2,0.6c-0.7,0.3-1.5,0.7-2.2,1.1c-0.8,0.5-1.6,1.1-2.4,1.8
	c-0.9,0.7-1.7,1.6-2.6,2.5c-0.9,1-1.8,2.1-2.6,3.3c-0.9,1.2-1.8,2.6-2.6,4.1c-0.9,1.5-1.7,3.1-2.5,4.8c-0.8,1.7-1.6,3.5-2.3,5.4
	c-0.7,1.9-1.4,3.9-2,5.9c-0.9,2.9-1.7,6-2.4,9.2H105.9z M44.3,49.6c1.6-7.9,3.7-15.1,6.4-21.6c2.2-5.2,4.6-9.7,7.4-13.5
	C40.6,20.4,26.2,32.9,18,49.6H44.3z"/>
<g>
</g>
<g>
</g>
<g>
</g>
<g>
</g>
<g>
</g>
<g>
</g>
</svg>
